<svg xmlns="http://www.w3.org/2000/svg" width="222" height="54" fill="none" xmlns:v="https://vecta.io/nano"><g clip-path="url(#C)"><g fill-rule="evenodd"><path d="M25.945 53.483c-1.336.765-2.938.657-4.134-.145l-8.782-5.048v-8.087l.005.005c-.005-.528.292-.679.806-.388l5.438 3.125c.655.377.833.032.833-.539V30.623h-.022c0-.722-.173-1.395-.877-1.902l-9.61-5.528c-1.055-.506-1.915.005-1.829 1.185l-.005-.005v7.187 4.773 8.933l-5.822-3.351C.682 41.188-.016 39.868 0 38.511V15.489a3.81 3.81 0 0 1 1.937-3.41l9.025-5.188 7.061 4.062c.422.242.384.571-.049.857l-5.465 3.141c-.373.216-.384.754.059 1.013l13.359 7.683c1.802 1.034 1.937 2.559 1.937 4.31v2.381 10.921c0 1.083.817 1.692 1.639 1.218l18.483-10.614v6.702c0 1.428-.785 2.678-1.943 3.346L25.945 53.483z" fill="url(#A)"/><path d="M16.227 3.868L22.049.523c1.336-.765 2.938-.657 4.134.145l19.63 11.287a3.86 3.86 0 0 1 1.667 1.546c.303.528.471 1.094.514 1.659v.248.081 10.323l-7.034 4.035v-.005c-.476.232-.725.065-.736-.496v-6.271c0-.63-.281-.765-.693-.528l-9.177 5.274v-2.344c0-.684 0-2.424-1.456-3.254l-2.208-1.255 7.965-4.579c.812-.652.741-1.568-.271-2.053l.027-.011-6.466-3.717.005-.005-11.725-6.734z" fill="url(#B)"/></g><g fill="#f9be00"><path d="M72.077 18.652c-.709-1.347-1.677-2.387-2.9-3.12s-2.624-1.099-4.199-1.099c-1.418 0-2.689.264-3.809.792-1.06.501-1.991 1.126-2.781 1.891l-.449-2.257h-4.22v24.923h4.913v-9.757c.611.663 1.369 1.191 2.283 1.573a7.85 7.85 0 0 0 3.095.636c1.78 0 3.355-.339 4.718-1.018a7.64 7.64 0 0 0 3.23-3.006c.79-1.32 1.18-2.909 1.18-4.757 0-1.853-.352-3.448-1.061-4.8zm-4.642 7.397c-.476.733-1.098 1.304-1.856 1.713-.757.415-1.607.614-2.532.614-1.082 0-2.024-.28-2.824-.846a3.95 3.95 0 0 1-1.585-2.273v-3.696c.438-.948 1.05-1.692 1.834-2.214.785-.528 1.758-.792 2.922-.792.877 0 1.677.21 2.397.636a4.7 4.7 0 0 1 1.721 1.751c.422.743.639 1.605.639 2.581 0 .954-.238 1.794-.714 2.527zm6.823-2.715c0-1.697.4-3.211 1.201-4.547s1.915-2.387 3.344-3.157c1.434-.77 3.073-1.153 4.935-1.153 1.883 0 3.522.383 4.913 1.153s2.462 1.821 3.209 3.157 1.12 2.85 1.12 4.547c0 1.67-.379 3.179-1.142 4.526a8.33 8.33 0 0 1-3.209 3.195c-1.38.781-3.035 1.175-4.973 1.175-1.807 0-3.42-.356-4.837-1.061a8.03 8.03 0 0 1-3.344-3.06c-.806-1.331-1.217-2.925-1.217-4.773zm4.956.038c0 .9.195 1.719.579 2.467.39.744.909 1.336 1.569 1.773a3.94 3.94 0 0 0 2.224.657c1.342 0 2.419-.469 3.23-1.406s1.218-2.101 1.218-3.486c0-1.412-.406-2.586-1.218-3.523s-1.888-1.406-3.23-1.406a3.92 3.92 0 0 0-2.224.657c-.66.436-1.18 1.029-1.569 1.772s-.579 1.573-.579 2.495zm14.929-.038c0-1.697.4-3.211 1.201-4.547s1.915-2.387 3.344-3.157c1.434-.77 3.073-1.153 4.934-1.153 1.883 0 3.523.383 4.913 1.153s2.462 1.821 3.209 3.157 1.12 2.85 1.12 4.547c0 1.67-.379 3.179-1.142 4.526s-1.828 2.414-3.208 3.195-3.036 1.175-4.973 1.175c-1.807 0-3.419-.356-4.837-1.061s-2.532-1.729-3.344-3.06-1.218-2.925-1.218-4.773zm4.956.038c0 .9.195 1.719.579 2.467s.909 1.336 1.569 1.773a3.94 3.94 0 0 0 2.224.657c1.342 0 2.419-.469 3.23-1.406s1.218-2.101 1.218-3.486c0-1.412-.406-2.586-1.218-3.523s-1.888-1.406-3.23-1.406a3.92 3.92 0 0 0-2.224.657c-.66.436-1.18 1.029-1.569 1.772s-.579 1.573-.579 2.495zm16.249-21.804h4.913v30.241h-4.913V1.568zm21.892 13.636l-.33 1.95c-.531-.69-1.223-1.309-2.089-1.853-.914-.577-2.186-.867-3.809-.867a7.88 7.88 0 0 0-4.064 1.121c-1.26.743-2.278 1.789-3.035 3.141-.763 1.347-1.142 2.958-1.142 4.833 0 1.977.368 3.61 1.104 4.892s1.737 2.241 2.998 2.872 2.673.943 4.22.943c.979 0 1.84-.14 2.592-.42s1.38-.625 1.894-1.024.914-.765 1.201-1.099l.113-.135v2.252h4.913V15.204h-4.566zm-2.013 12.289c-.752.512-1.661.771-2.749.771a4.49 4.49 0 0 1-2.359-.657 4.84 4.84 0 0 1-1.721-1.789c-.422-.754-.638-1.6-.638-2.521 0-.948.206-1.789.617-2.521a4.7 4.7 0 0 1 1.661-1.735c.698-.42 1.461-.636 2.283-.636 1.082 0 2.035.28 2.863.846.822.566 1.396 1.298 1.704 2.193v3.852c-.357.954-.909 1.686-1.661 2.198zm28.726-8.841c-.709-1.347-1.677-2.387-2.9-3.12s-2.625-1.099-4.199-1.099c-1.418 0-2.689.264-3.809.792-1.061.501-1.986 1.126-2.781 1.891l-.45-2.257h-4.215v24.923h4.913V30.02c.612.668 1.375 1.191 2.284 1.573a7.85 7.85 0 0 0 3.095.636c1.78 0 3.354-.339 4.718-1.018 1.369-.684 2.44-1.681 3.23-3.006s1.18-2.909 1.18-4.757-.357-3.443-1.066-4.795zm-4.643 7.397c-.476.733-1.098 1.304-1.855 1.713-.763.415-1.607.614-2.533.614-1.082 0-2.023-.28-2.824-.846a3.97 3.97 0 0 1-1.586-2.273v-3.696c.439-.948 1.05-1.692 1.835-2.214.79-.528 1.764-.792 2.922-.792.876 0 1.677.21 2.397.636.719.42 1.298 1.008 1.72 1.751.428.743.639 1.605.639 2.581 0 .954-.238 1.794-.715 2.527zm21.297-10.845l-.33 1.95c-.53-.69-1.223-1.309-2.083-1.853-.914-.577-2.186-.867-3.809-.867a7.89 7.89 0 0 0-4.064 1.121c-1.267.744-2.278 1.789-3.035 3.141-.763 1.347-1.142 2.958-1.142 4.833 0 1.977.368 3.61 1.104 4.892s1.732 2.241 2.998 2.872c1.26.63 2.667.943 4.215.943.979 0 1.845-.14 2.591-.42.753-.285 1.38-.625 1.9-1.024.514-.399.914-.765 1.195-1.099l.114-.135v2.252h4.913V15.204h-4.567zm-2.012 12.289c-.747.512-1.662.771-2.744.771a4.48 4.48 0 0 1-2.359-.657 4.77 4.77 0 0 1-1.721-1.789c-.427-.754-.638-1.6-.638-2.521 0-.948.206-1.789.617-2.521a4.7 4.7 0 0 1 1.661-1.735 4.34 4.34 0 0 1 2.283-.636c1.082 0 2.035.28 2.863.846s1.396 1.298 1.704 2.193v3.852c-.362.954-.914 1.686-1.666 2.198zm24.375 2.812c-.746.593-1.661 1.061-2.748 1.406s-2.165.523-3.252.523c-1.856 0-3.49-.345-4.892-1.04-1.407-.695-2.494-1.697-3.268-3.006s-1.158-2.877-1.158-4.698.411-3.383 1.239-4.682a8.29 8.29 0 0 1 3.268-2.985 9.31 9.31 0 0 1 4.313-1.04c1.472 0 2.749.199 3.831.598s2.013.916 2.786 1.562l-2.397 3.157c-.384-.307-.903-.609-1.547-.905s-1.38-.442-2.208-.442-1.569.205-2.224.614-1.179.975-1.569 1.697c-.384.722-.579 1.53-.579 2.424a4.93 4.93 0 0 0 .601 2.408 4.43 4.43 0 0 0 1.704 1.735c.736.426 1.58.636 2.532.636a5.38 5.38 0 0 0 1.721-.269c.53-.178.985-.436 1.374-.771l2.473 3.076zM222 31.809h-5.725l-4.323-7.203-1.71 1.309v5.894h-4.913V1.568h4.913v19.325l8.122-6.072 2.981 2.618-5.979 4.558L222 31.809z"/></g></g><defs><linearGradient id="A" x1="5.383" y1="45.526" x2="33.427" y2="17.361" gradientUnits="userSpaceOnUse"><stop stop-color="#4b1412"/><stop offset=".198" stop-color="#4f1412"/><stop offset=".397" stop-color="#5b1413"/><stop offset=".596" stop-color="#6f1314"/><stop offset=".687" stop-color="#7b1315"/><stop offset=".722" stop-color="#7e181a"/><stop offset=".764" stop-color="#862729"/><stop offset=".809" stop-color="#934041"/><stop offset=".858" stop-color="#a56263"/><stop offset=".908" stop-color="#bc8e8f"/><stop offset=".96" stop-color="#d8c4c4"/><stop offset="1" stop-color="#f1f2f2"/></linearGradient><linearGradient id="B" x1="26.025" y1="25.333" x2="36.726" y2="6.718" gradientUnits="userSpaceOnUse"><stop stop-color="#fff9df"/><stop offset=".038" stop-color="#fff7d8"/><stop offset=".333" stop-color="#ffeba4"/><stop offset=".554" stop-color="#ffe483"/><stop offset=".676" stop-color="#ffe177"/><stop offset=".943" stop-color="#feba43"/><stop offset="1" stop-color="#feb137"/></linearGradient><clipPath id="C"><path fill="#fff" d="M0 0h222v54H0z"/></clipPath></defs></svg>